<svg xmlns="http://www.w3.org/2000/svg" viewBox="0 0 240 240" width="240" height="240">
  <g fill="#f4b8ce">
    <ellipse cx="30" cy="40" rx="7" ry="4" transform="rotate(28 30 40)"/>
    <ellipse cx="150" cy="30" rx="6" ry="3.5" transform="rotate(-20 150 30)"/>
    <ellipse cx="200" cy="90" rx="7" ry="4" transform="rotate(40 200 90)"/>
    <ellipse cx="80" cy="120" rx="6" ry="3.5" transform="rotate(-35 80 120)"/>
    <ellipse cx="180" cy="170" rx="7" ry="4" transform="rotate(15 180 170)"/>
    <ellipse cx="40" cy="200" rx="6" ry="3.5" transform="rotate(-28 40 200)"/>
    <ellipse cx="120" cy="210" rx="7" ry="4" transform="rotate(48 120 210)"/>
  </g>
  <g fill="#e59fbb">
    <ellipse cx="110" cy="70" rx="5.5" ry="3.2" transform="rotate(18 110 70)"/>
    <ellipse cx="230" cy="150" rx="5.5" ry="3.2" transform="rotate(-24 230 150)"/>
    <ellipse cx="10" cy="140" rx="5.5" ry="3.2" transform="rotate(33 10 140)"/>
  </g>
</svg>
